<svg id="Layer_2" data-name="Layer 2" xmlns="http://www.w3.org/2000/svg" viewBox="0 0 32 32"><defs><style>.cls-1{fill:#231f20;}</style></defs><title>network</title><path id="_Path_" data-name="&lt;Path&gt;" class="cls-1" d="M24.29,19.57a5.68,5.68,0,0,0-3,.85,2.49,2.49,0,0,1-2.53.05L14.7,18.2A2.5,2.5,0,0,1,13.43,16v0A2.49,2.49,0,0,1,14.7,13.8l4.06-2.28a2.5,2.5,0,0,1,2.53.05,5.71,5.71,0,1,0-2.72-4.87v0A2.49,2.49,0,0,1,17.3,8.91l-3.92,2.2a2.77,2.77,0,0,1-2.76,0,5.71,5.71,0,1,0,.09,9.79,2.49,2.49,0,0,1,2.53-.05l4.06,2.28a2.5,2.5,0,0,1,1.27,2.18v0a5.71,5.71,0,1,0,5.71-5.71Z"/></svg>