<svg id="Layer_2" data-name="Layer 2" xmlns="http://www.w3.org/2000/svg" viewBox="0 0 32 32"><defs><style>.cls-1{fill:#231f20;}</style></defs><title>soccer-player</title><path class="cls-1" d="M16.87,18.8A21.15,21.15,0,0,0,18.3,17,8.49,8.49,0,0,0,26,19.14a2,2,0,0,0-.82-3.92c-2.77.58-4.1-1.15-5.16-2.11a10.91,10.91,0,0,0-9.16-2.7,15.69,15.69,0,0,0-5,1.76A2,2,0,0,0,7.94,15.6a11.62,11.62,0,0,1,3.79-1.27c-.08.29-.33,1.12-.68,2.26-1.9,5.58-1.59,5.56-7.64,5.56a2,2,0,0,0,0,4c2,0,7.56.55,11-4.16,2.22,2.23,2,2.64,2,7a2,2,0,0,0,4,0C20.4,23.73,20.49,22.44,16.87,18.8ZM19.35,10a4.5,4.5,0,1,0-4.5-4.5A4.5,4.5,0,0,0,19.35,10Zm7.74,14a3.5,3.5,0,1,0,3.5,3.5A3.5,3.5,0,0,0,27.09,24Z"/></svg>