<svg id="Layer_2" data-name="Layer 2" xmlns="http://www.w3.org/2000/svg" viewBox="0 0 32 32"><defs><style>.cls-1{fill:#231f20;}</style></defs><title>whistle</title><path class="cls-1" d="M10.89,11a10,10,0,1,0,9.93,11.14,1.68,1.68,0,0,1,1.35-1.4L31,19V11ZM16.5,7A1.5,1.5,0,0,0,18,5.53v-3a1.5,1.5,0,1,0-3,0v3A1.5,1.5,0,0,0,16.5,7Zm-6,1.67a1.5,1.5,0,1,0,2.12-2.12L10.49,4.44A1.5,1.5,0,1,0,8.37,6.56Zm10.92.44a1.5,1.5,0,0,0,1.06-.44l2.14-2.14a1.5,1.5,0,1,0-2.12-2.12L20.37,6.58a1.5,1.5,0,0,0,1.06,2.56Z"/></svg>