<svg xmlns="http://www.w3.org/2000/svg" width="16.947" height="22.561" viewBox="0 0 16.947 22.561"><path d="M20.537,20.346H7.1a1.493,1.493,0,1,0,0,2.985H20.537a1.493,1.493,0,0,0,0-2.985Zm-7.978-2.582a2.411,2.411,0,0,0,2.478,0A22.24,22.24,0,0,0,21.9,10.9a2.411,2.411,0,1,0-4.112-2.5,16.418,16.418,0,0,1-1.157,1.582l-.545-6.956a2.261,2.261,0,1,0-4.523,0l-.545,7A13.172,13.172,0,0,1,9.857,8.4,2.412,2.412,0,0,0,5.723,10.89a22.247,22.247,0,0,0,6.836,6.873Z" transform="translate(-5.378 -0.77)" fill="#f7f7ef"/></svg>