<svg xmlns="http://www.w3.org/2000/svg" width="30" height="26" viewBox="0 0 30 26"><path d="M4.5,20V13a.51.51,0,0,0-.5-.5H1v8H4a.51.51,0,0,0,.5-.5ZM26.92,3H17.5v7.2a6,6,0,0,1,0,11.61V29h9.42A4.09,4.09,0,0,0,31,24.92V23.5H28A3.5,3.5,0,0,1,24.5,20V13A3.5,3.5,0,0,1,28,9.5h3V7.08A4.09,4.09,0,0,0,26.92,3ZM10,16a6,6,0,0,1,4.5-5.8V3H5.08A4.09,4.09,0,0,0,1,7.08V9.5H4A3.5,3.5,0,0,1,7.5,13v7A3.5,3.5,0,0,1,4,23.5H1v1.42A4.09,4.09,0,0,0,5.08,29H14.5V21.8A6,6,0,0,1,10,16Zm17.5-3v7a.51.51,0,0,0,.5.5h3v-8H28a.51.51,0,0,0-.5.5ZM19,16a3,3,0,1,0-3,3A3,3,0,0,0,19,16Z" transform="translate(-1 -3)" fill="#f7f7ef"/></svg>