<svg xmlns="http://www.w3.org/2000/svg" width="21.655" height="21.551" viewBox="0 0 21.655 21.551"><path d="M8.079,8.2A7.191,7.191,0,1,0,15.22,16.21a1.208,1.208,0,0,1,.971-1.007l6.35-1.251V8.2Zm4.034-2.876a1.079,1.079,0,0,0,1.079-1.057V2.109a1.079,1.079,0,0,0-2.157,0V4.266a1.079,1.079,0,0,0,1.079,1.057ZM7.8,6.524A1.079,1.079,0,1,0,9.323,5L7.792,3.482A1.079,1.079,0,1,0,6.267,5.007Zm7.852.316a1.079,1.079,0,0,0,.762-.316l1.539-1.539a1.079,1.079,0,1,0-1.524-1.524L14.9,5.021a1.079,1.079,0,0,0,.762,1.841Z" transform="translate(-0.885 -1.03)" fill="#EC2027"/></svg>