<svg xmlns="http://www.w3.org/2000/svg" width="29.999" height="23.963" viewBox="0 0 29.999 23.963"><path d="M-763.07-4950.038a2.371,2.371,0,0,1-2.371-2.162l-.569-7.31a17.364,17.364,0,0,0-1.21,1.66,2.545,2.545,0,0,1-2.173,1.23,2.527,2.527,0,0,1-1.3-.36,2.511,2.511,0,0,1-1.155-1.555,2.513,2.513,0,0,1,.284-1.916,23.473,23.473,0,0,1,7.19-7.19,2.53,2.53,0,0,1,1.3-.359,2.53,2.53,0,0,1,1.3.359,23.471,23.471,0,0,1,7.19,7.19,2.521,2.521,0,0,1,.361,1.3,2.54,2.54,0,0,1-1.856,2.438,2.518,2.518,0,0,1-.674.092,2.541,2.541,0,0,1-2.169-1.229,13.841,13.841,0,0,0-1.211-1.69l-.569,7.34A2.371,2.371,0,0,1-763.07-4950.038Zm-12-5.48h-3V-4970a4,4,0,0,1,4-4h22a4,4,0,0,1,4,4v14.479h-3V-4970a1,1,0,0,0-1-1h-22a1,1,0,0,0-1,1v14.48Z" transform="translate(778.07 4974)" fill="#f7f7ef"/></svg>