<svg xmlns="http://www.w3.org/2000/svg" viewBox="0 0 199.053 136.884">
	<g transform="translate(-0.039 108.362)">
		<path d="M779.208,1020.095a57.1,57.1,0,0,1,5.862.019,5.093,5.093,0,0,1,.087.53c.016.19,0,.382,0,.572v27.177a2.03,2.03,0,0,1-.488.134H780.08a1.777,1.777,0,0,1-.3-.059c-.234-.27-.136-.6-.138-.907v-9.543a1.76,1.76,0,0,0-.406.905q-1.034,4.466-2.084,8.928c-.049.211-.131.413-.192.6a31.4,31.4,0,0,1-4.591.049,4.452,4.452,0,0,1-.216-.57c-.635-2.694-1.259-5.393-1.894-8.087a8.586,8.586,0,0,0-.5-1.709,12.018,12.018,0,0,0-.1,2.068v6.127c0,.668-.014,1.39-.021,2.11a13.226,13.226,0,0,1-2.706.1,27.065,27.065,0,0,1-2.713-.035c-.028-.234-.061-.41-.07-.591-.012-.234,0-.448,0-.671V1020.16a1.627,1.627,0,0,1,.4-.115h5.257a.951.951,0,0,1,.206.049,2.183,2.183,0,0,1,.434,1.022q1.923,5.8,3.826,11.608c.089.267.19.532.326.919a4.4,4.4,0,0,0,.3-.567q2-6.028,3.986-12.058C778.985,1020.725,779.093,1020.425,779.208,1020.095Z" transform="translate(-716.393 -1020.062)" fill="#f7f7ef" />
		<path d="M871.992,1044.308v-19.067c0-.192.014-.385,0-.574a.914.914,0,0,1,.314-.76q1.761-1.758,3.517-3.517a1.032,1.032,0,0,1,.844-.349c.19.012.382,0,.574,0H884.8a1.348,1.348,0,0,1,1.264.5c.349.41.757.776,1.139,1.158.6.612,1.217,1.219,1.819,1.833.825.839.692.553.7,1.749v17.789a5.343,5.343,0,0,0,0,.671,1.132,1.132,0,0,1-.424,1q-1.7,1.681-3.381,3.383a1.3,1.3,0,0,1-1.01.42c-2.71-.016-5.421,0-8.129,0a1.008,1.008,0,0,1-.795-.234Q874,1046.3,871.992,1044.308Zm5.515-18.71v16.366a1.9,1.9,0,0,0,.089,1,1.293,1.293,0,0,0,.218.063h6.019a1.32,1.32,0,0,0,.363-.115v-17.034a.964.964,0,0,0-.073-.256,36.4,36.4,0,0,0-5.913-.12c-.2.01-.417.061-.694.1Z" transform="translate(-798.95 -1020.06)" fill="#f7f7ef" />
		<path d="M1186.67,1043.688c-1.226-.1-6.056-.075-6.837.04-.209.762-.413,1.559-.647,2.344a18.917,18.917,0,0,1-.689,2.345,41.168,41.168,0,0,1-5.28.031c-.195-.206-.052-.413,0-.619q2.181-8.115,4.363-16.225,1.477-5.487,2.964-10.968c.049-.181.122-.354.178-.513a33.826,33.826,0,0,1,5.515,0q3.545,13.967,7.1,27.99a.771.771,0,0,1-.023.272,31.834,31.834,0,0,1-5.292.063,5.945,5.945,0,0,1-.216-.582c-.317-1.2-.624-2.4-.938-3.6C1186.82,1044.094,1186.747,1043.923,1186.67,1043.688Zm-1.407-5.627c-.558-2.378-1.172-4.673-1.759-6.968a1.337,1.337,0,0,0-.164-.263,59.819,59.819,0,0,0-1.876,7.231,16.441,16.441,0,0,0,3.817,0Z" transform="translate(-1029.474 -1020.048)" fill="#f7f7ef" />
		<path d="M1347.67,1048.4c-.1-1.069-.082-27.5.023-28.293a2.241,2.241,0,0,1,1-.087h12.624c.234,0,.443.026.685.042a4.655,4.655,0,0,1,.117,1.7c.026.6,0,1.212,0,1.817v1.667c-.3.333-.642.234-.938.234H1354.3c-.345,0-.7.021-1.086.035a17.356,17.356,0,0,0-.082,2.971c-.014.973-.047,1.96.031,3,1.231.08,2.4.026,3.573.04s2.286-.021,3.482.023a7.644,7.644,0,0,1,.08,1.733c.014.6,0,1.212,0,1.817v1.641a.982.982,0,0,1-.875.234h-5.261c-.312,0-.626.023-.922.038a43.313,43.313,0,0,0-.054,5.93c.234.021.469.063.717.063h7.172c.312,0,.624.021.992.035a11.231,11.231,0,0,1,.059,1.829c.014.593,0,1.149,0,1.723a14.767,14.767,0,0,1-.047,1.836c-.27.028-.485.066-.7.068C1355.9,1048.624,1348.566,1048.565,1347.67,1048.4Z" transform="translate(-1163.049 -1020.043)" fill="#f7f7ef" />
		<path d="M658.675,1044.565q-1.927,1.925-3.85,3.852a.791.791,0,0,1-.6.251h-.469c-2.551,0-5.1-.016-7.648,0a1.77,1.77,0,0,1-1.426-.591c-1.144-1.2-2.345-2.344-3.517-3.517v-20.08l4.18-4.141h9.128l4.195,4.141v5.287a1.061,1.061,0,0,1-.349.134h-4.588a1.286,1.286,0,0,1-.314-.1c-.167-1.313.021-2.649-.108-4.009a2.356,2.356,0,0,0-.469-.115H647.01a2.463,2.463,0,0,0-.41.075,5.4,5.4,0,0,0-.091.65v16.757a2.408,2.408,0,0,0,.488.124h5.927a2.429,2.429,0,0,0,.34-.056,4.364,4.364,0,0,0,.094-.619q0-1.291,0-2.579c0-.281.028-.56.045-.9a9.408,9.408,0,0,1,1.73-.061c.558-.012,1.147,0,1.721,0h1.688A24.393,24.393,0,0,1,658.675,1044.565Z" transform="translate(-622.249 -1020.3)" fill="#ec2027" />
		<path d="M1107.784,1048.508h-5.311a1.3,1.3,0,0,1-.352-.776q-1.7-6.715-3.414-13.423-1.681-6.619-3.351-13.242c-.075-.3-.131-.6-.2-.91a32.653,32.653,0,0,1,5.461,0l4.427,17.435c.328-.115.3-.366.361-.572l2.652-9.773,1.721-6.361c.066-.234.145-.485.216-.7a31.227,31.227,0,0,1,5.393-.023c-.049.272-.08.549-.152.813q-2.68,9.96-5.369,19.929-.907,3.367-1.819,6.731C1107.978,1047.882,1107.887,1048.154,1107.784,1048.508Z" transform="translate(-969.795 -1020.073)" fill="#f7f7ef" />
		<path d="M560.672,1020.3c1.212-.124,13.538-.1,14.314.028a9.255,9.255,0,0,1,.054,1.676c.012.565,0,1.146,0,1.721s0,1.137-.016,1.688a1.389,1.389,0,0,1-.964.164h-6.881a2.584,2.584,0,0,0-1,.068c-.054.1-.108.155-.11.208q-.021,2.483-.035,4.968c0,.249.026.5.045.814.267.026.511.073.753.073h6.23a1.444,1.444,0,0,1,.129.385v4.586a1.318,1.318,0,0,1-.1.319c-.27.019-.549.056-.825.056h-5.158c-.314,0-.626.031-.938.047a2.207,2.207,0,0,0-.127,1.069v9.177c0,.345-.016.7-.026,1.09a3,3,0,0,1-.56.12h-4.3a2.843,2.843,0,0,1-.415-.07c-.033-.22-.08-.434-.1-.647s0-.446,0-.668v-25.615C560.635,1021.158,560.658,1020.75,560.672,1020.3Z" transform="translate(-560.6 -1020.204)" fill="#ec2027" />
		<path d="M982.027,1020.1a32.842,32.842,0,0,1-.037,5.346c-.83.089-1.686.019-2.537.045a16.327,16.327,0,0,0-2.471.073,2.749,2.749,0,0,0-.1,1.154v20.551a3.479,3.479,0,0,1-.089,1.186,9.379,9.379,0,0,1-1.794.066c-.593.012-1.149,0-1.721,0a13.562,13.562,0,0,1-1.8-.047,2.462,2.462,0,0,1-.106-1.081v-20.755a2.477,2.477,0,0,0-.1-1.081,16.651,16.651,0,0,0-2.539-.08,21.192,21.192,0,0,1-2.5-.066,5.636,5.636,0,0,1-.113-1.8c-.019-.593-.019-1.147,0-1.719a6.877,6.877,0,0,1,.091-1.789C966.946,1020,981.037,1019.98,982.027,1020.1Z" transform="translate(-871.002 -1020.053)" fill="#f7f7ef" />
		<path d="M1271.777,1048.432a35.422,35.422,0,0,1-5.421.028,4.5,4.5,0,0,1-.091-.511c-.016-.286,0-.572,0-.86v-21.456a4.662,4.662,0,0,0-.675-.11h-4.406a1.555,1.555,0,0,1-.124-.4v-4.689a.908.908,0,0,1,.059-.234.6.6,0,0,1,.1-.1.192.192,0,0,1,.089-.021q7.552-.016,15.1-.028c.155,0,.312.021.5.038a1.28,1.28,0,0,1,.117.349v4.689a1.606,1.606,0,0,1-.089.319,6.264,6.264,0,0,1-.633.073h-3.44c-.314,0-.628.024-.882.035a.738.738,0,0,0-.2.671v22.208Z" transform="translate(-1096.797 -1020.078)" fill="#f7f7ef" />
		<path d="M1058.212,1019.982c.03.274.073.49.077.7.136,5.357.063,26.677-.1,27.667a13.321,13.321,0,0,1-2.617.077,19.15,19.15,0,0,1-2.687-.052c-.031-.2-.068-.347-.075-.5-.1-2.345-.028-27.017.082-27.859a14.628,14.628,0,0,1,2.626-.077C1056.4,1019.928,1057.286,1019.921,1058.212,1019.982Z" transform="translate(-937.339 -1019.98)" fill="#f7f7ef" />
	</g>
	<path d="M26.119.587,90,.179,117.738,0,107.524,6.792l-7.1,4.724L0,78.3,48.892,21.7l14.861,3.063Z" transform="translate(40.658)" fill="#ec2027" />
</svg>
