<svg xmlns="http://www.w3.org/2000/svg" width="38.445" height="32.543" viewBox="0 0 38.445 32.543"><g transform="translate(-1.371 -3.621)"><path d="M38.541,8.667a5.376,5.376,0,0,0-3.654-3.785,81.414,81.414,0,0,0-28.549,0,5.376,5.376,0,0,0-3.68,3.785,49.579,49.579,0,0,0,0,22.45A5.376,5.376,0,0,0,6.312,34.9a81.4,81.4,0,0,0,28.549,0,5.376,5.376,0,0,0,3.654-3.785,49.579,49.579,0,0,0,.026-22.45Zm-10.055,17.6a6.572,6.572,0,0,1-6.02-9.2H18.733a6.572,6.572,0,1,1-6.02-3.943H28.486a6.572,6.572,0,1,1,0,13.144ZM12.713,17.723a1.972,1.972,0,1,0,1.972,1.972A1.972,1.972,0,0,0,12.713,17.723Zm15.773,0a1.972,1.972,0,1,0,1.972,1.972A1.972,1.972,0,0,0,28.486,17.723Z" transform="translate(0 0)" fill="#f7f7ef"/></g></svg>