<?xml version="1.0" encoding="UTF-8"?>
<!DOCTYPE svg PUBLIC "-//W3C//DTD SVG 1.1//EN" "http://www.w3.org/Graphics/SVG/1.1/DTD/svg11.dtd">
<!-- Creator: CorelDRAW 2021 (64-Bit) -->
<svg xmlns="http://www.w3.org/2000/svg" xml:space="preserve" version="1.1" style="shape-rendering:geometricPrecision; text-rendering:geometricPrecision; image-rendering:optimizeQuality; fill-rule:evenodd; clip-rule:evenodd"
viewBox="0 0 560.35 560.38"
 xmlns:xlink="http://www.w3.org/1999/xlink"
 xmlns:xodm="http://www.corel.com/coreldraw/odm/2003">
 <defs>
  <style type="text/css">
   <![CDATA[
    .fil0 {fill:url(#id0);fill-rule:nonzero}
    .fil1 {fill:url(#id1);fill-rule:nonzero}
   ]]>
  </style>
  <linearGradient id="id0" gradientUnits="userSpaceOnUse" x1="399.66" y1="-139.94" x2="187.38" y2="826.6">
   <stop offset="0" style="stop-opacity:1; stop-color:#2D3439"/>
   <stop offset="1" style="stop-opacity:1; stop-color:#1D2328"/>
  </linearGradient>
  <linearGradient id="id1" gradientUnits="userSpaceOnUse" x1="520.62" y1="328.5" x2="236" y2="111.48">
   <stop offset="0" style="stop-opacity:1; stop-color:#293136"/>
   <stop offset="1" style="stop-opacity:1; stop-color:#1B2125"/>
  </linearGradient>
 </defs>
 <g id="Layer_x0020_1">
  <metadata id="CorelCorpID_0Corel-Layer"/>
  <path id="Oval_1-3" class="fil0" d="M560.35 280.19c0,-154.74 -125.44,-280.19 -280.18,-280.19 -154.74,0 -280.18,125.44 -280.18,280.19 0,154.74 125.44,280.19 280.18,280.19 154.74,0 280.18,-125.44 280.18,-280.19z" data-name="Oval 1"/>
  <path id="Oval_1-4" class="fil1" d="M521.51 280.34c0,-133.83 -108.49,-242.32 -242.32,-242.32 -133.83,0 -242.32,108.49 -242.32,242.32 0,133.83 108.49,242.32 242.32,242.32 133.83,0 242.32,-108.49 242.32,-242.32z" data-name="Oval 1"/>
 </g>
</svg>
