<svg id="svg" version="1.1" xmlns="http://www.w3.org/2000/svg" xmlns:xlink="http://www.w3.org/1999/xlink" width="400" height="601.1834319526627" viewBox="0, 0, 400,601.1834319526627"><g id="svgg"><path id="path0" d="M187.200 39.460 C 173.462 47.390,172.943 47.690,171.000 48.800 C 170.230 49.240,168.970 49.960,168.200 50.400 C 167.430 50.840,166.125 51.579,165.300 52.043 C 164.475 52.506,163.620 53.020,163.400 53.185 C 163.180 53.350,162.010 54.027,160.800 54.690 C 156.523 57.034,124.193 75.678,123.700 76.085 C 123.168 76.524,122.919 346.000,123.451 346.000 C 123.589 346.000,126.604 344.309,130.151 342.242 C 133.698 340.175,137.230 338.127,138.000 337.692 C 138.770 337.256,141.650 335.595,144.400 334.000 C 147.150 332.405,149.985 330.763,150.700 330.350 C 151.415 329.938,152.585 329.262,153.300 328.850 C 154.015 328.437,156.850 326.790,159.600 325.191 C 162.350 323.591,165.050 322.035,165.600 321.732 C 166.150 321.430,168.670 319.968,171.200 318.483 L 175.800 315.783 176.000 211.252 L 176.200 106.722 178.000 105.704 C 180.256 104.429,180.372 104.362,190.935 98.252 C 195.740 95.474,199.897 93.200,200.173 93.200 C 200.590 93.200,204.194 95.211,213.800 100.804 C 214.460 101.188,216.980 102.639,219.400 104.027 C 221.820 105.416,223.932 106.743,224.094 106.976 C 224.256 107.209,224.391 180.424,224.394 269.676 C 224.398 374.892,224.537 432.038,224.791 432.194 C 225.122 432.399,228.103 430.990,229.400 430.016 C 229.620 429.850,230.790 429.175,232.000 428.516 C 235.224 426.758,237.475 425.486,244.600 421.397 C 248.120 419.377,251.810 417.271,252.800 416.718 C 254.518 415.759,255.752 415.058,259.100 413.141 C 259.925 412.669,261.590 411.743,262.800 411.083 C 264.010 410.424,265.180 409.748,265.400 409.581 C 265.620 409.413,266.857 408.698,268.149 407.991 C 269.440 407.283,271.960 405.862,273.749 404.831 L 277.000 402.957 277.101 270.479 C 277.175 172.010,277.318 138.000,277.655 138.000 C 277.905 138.000,281.279 139.822,285.154 142.048 C 289.029 144.275,292.920 146.505,293.800 147.005 C 295.269 147.840,314.898 159.115,317.900 160.849 C 319.760 161.923,321.534 162.937,323.600 164.104 L 325.400 165.122 325.602 269.661 C 325.713 327.157,325.848 374.238,325.902 374.284 C 325.956 374.330,330.005 372.062,334.900 369.242 C 339.795 366.423,344.610 363.661,345.600 363.106 C 347.049 362.292,356.440 356.907,375.445 345.990 C 376.130 345.597,377.075 345.035,377.545 344.741 L 378.400 344.208 378.400 240.400 L 378.400 136.592 377.545 136.059 C 377.075 135.765,376.085 135.182,375.345 134.762 C 374.605 134.343,373.397 133.658,372.660 133.240 C 371.922 132.822,369.987 131.683,368.360 130.708 C 365.473 128.979,358.909 125.120,348.800 119.207 C 346.050 117.599,341.820 115.114,339.400 113.684 C 336.980 112.255,334.460 110.776,333.800 110.397 C 331.071 108.832,327.221 106.570,324.440 104.899 C 322.813 103.920,320.885 102.785,320.156 102.375 C 319.427 101.966,314.009 98.805,308.115 95.350 C 295.990 88.244,291.138 85.407,289.400 84.407 C 288.740 84.028,286.310 82.584,284.000 81.200 C 281.690 79.816,279.260 78.372,278.600 77.993 C 277.940 77.613,275.780 76.356,273.800 75.200 C 271.820 74.044,269.660 72.785,269.000 72.403 C 268.340 72.021,265.730 70.486,263.200 68.992 C 259.314 66.697,252.527 62.738,247.800 60.008 C 244.315 57.995,237.210 53.777,235.909 52.949 C 235.088 52.427,234.342 52.000,234.249 52.000 C 234.157 52.000,232.869 51.263,231.388 50.363 C 229.906 49.463,228.132 48.406,227.447 48.015 C 225.969 47.171,221.161 44.358,214.800 40.615 C 212.270 39.127,209.660 37.594,209.000 37.210 C 208.340 36.826,206.810 35.921,205.600 35.200 C 199.588 31.615,201.592 31.151,187.200 39.460 M88.600 96.256 C 83.540 99.227,78.500 102.158,77.400 102.770 C 76.300 103.382,74.447 104.449,73.282 105.141 C 72.118 105.834,71.070 106.400,70.954 106.400 C 70.839 106.400,69.959 106.940,69.000 107.600 C 68.041 108.260,67.167 108.800,67.059 108.800 C 66.951 108.800,65.274 109.723,63.332 110.851 C 61.389 111.980,59.215 113.240,58.500 113.651 C 57.785 114.063,56.615 114.737,55.900 115.150 C 53.525 116.520,31.424 129.290,30.000 130.114 C 29.230 130.560,28.240 131.127,27.800 131.374 C 27.360 131.620,25.785 132.530,24.300 133.396 L 21.600 134.970 21.600 269.685 C 21.600 377.191,21.701 404.400,22.100 404.400 C 22.375 404.400,24.113 403.500,25.961 402.400 C 27.810 401.300,29.360 400.400,29.405 400.400 C 29.450 400.400,34.057 397.765,39.644 394.545 C 45.230 391.325,50.790 388.148,52.000 387.484 C 53.210 386.821,54.650 385.973,55.200 385.600 C 55.750 385.227,57.190 384.378,58.400 383.713 C 62.498 381.460,73.397 375.134,73.900 374.717 C 74.294 374.390,74.401 365.118,74.406 330.851 C 74.409 306.953,74.546 287.189,74.710 286.932 C 74.874 286.675,77.886 284.808,81.404 282.783 C 84.922 280.759,88.430 278.736,89.200 278.289 C 89.970 277.841,90.960 277.277,91.400 277.036 C 95.624 274.718,98.771 272.557,98.963 271.843 C 99.512 269.798,99.213 212.380,98.652 212.165 C 98.148 211.971,94.624 213.922,85.468 219.462 C 83.525 220.638,81.873 221.600,81.797 221.600 C 81.721 221.600,80.244 222.468,78.516 223.529 C 76.787 224.590,75.154 225.385,74.887 225.296 C 74.510 225.170,74.400 218.442,74.400 195.629 C 74.400 162.713,74.123 165.828,77.200 164.090 C 78.391 163.417,85.854 159.100,89.800 156.802 C 90.460 156.417,92.620 155.163,94.600 154.014 C 96.580 152.866,98.426 151.740,98.703 151.512 C 99.524 150.835,99.225 91.040,98.400 90.933 C 98.070 90.890,93.660 93.286,88.600 96.256 M169.400 380.059 C 161.704 384.510,161.386 384.694,159.800 385.600 C 159.030 386.040,157.815 386.737,157.100 387.150 C 156.385 387.562,150.580 390.909,144.200 394.588 C 137.820 398.266,132.420 401.412,132.200 401.580 C 131.980 401.748,130.810 402.427,129.600 403.090 C 128.390 403.753,125.150 405.602,122.400 407.200 C 119.650 408.798,116.410 410.647,115.200 411.310 C 113.990 411.973,112.820 412.653,112.600 412.821 C 112.380 412.988,105.720 416.855,97.800 421.413 C 89.880 425.971,82.815 430.037,82.100 430.450 C 81.385 430.862,80.215 431.538,79.500 431.950 C 78.785 432.363,75.950 434.005,73.200 435.600 C 67.377 438.977,66.101 439.713,64.200 440.800 C 63.430 441.240,62.215 441.938,61.500 442.350 C 60.785 442.763,53.720 446.836,45.800 451.401 C 37.880 455.966,30.680 460.127,29.800 460.647 C 28.920 461.167,26.986 462.269,25.503 463.096 C 21.859 465.127,21.426 464.556,30.700 469.950 C 33.395 471.518,37.715 474.041,40.300 475.558 C 42.885 477.075,45.630 478.673,46.400 479.108 C 47.170 479.544,50.005 481.183,52.700 482.750 C 70.364 493.023,68.469 491.920,73.400 494.800 C 78.170 497.586,77.886 497.421,89.600 504.200 C 95.210 507.446,100.340 510.417,101.000 510.802 C 104.908 513.078,113.962 518.321,116.100 519.544 C 116.815 519.953,118.390 520.879,119.600 521.600 C 120.810 522.321,122.385 523.247,123.100 523.656 C 123.815 524.065,124.985 524.735,125.700 525.144 C 126.415 525.553,130.960 528.193,135.800 531.011 C 140.640 533.829,147.390 537.746,150.800 539.716 C 154.210 541.686,157.585 543.636,158.300 544.049 C 159.015 544.462,160.185 545.137,160.900 545.549 C 161.615 545.960,163.820 547.244,165.800 548.400 C 170.069 550.894,169.204 550.391,182.000 557.804 C 187.610 561.053,194.000 564.758,196.200 566.036 L 200.200 568.360 201.600 567.526 C 202.370 567.067,203.630 566.337,204.400 565.903 C 205.170 565.469,205.980 564.980,206.200 564.815 C 206.420 564.650,207.590 563.972,208.800 563.309 C 210.010 562.645,215.590 559.445,221.200 556.196 C 226.810 552.947,232.390 549.748,233.600 549.087 C 234.810 548.426,235.980 547.750,236.200 547.585 C 236.420 547.420,237.275 546.906,238.100 546.443 C 238.925 545.979,240.185 545.263,240.900 544.850 C 241.615 544.438,248.680 540.366,256.600 535.801 C 264.520 531.237,271.540 527.186,272.200 526.799 C 272.860 526.413,276.910 524.073,281.200 521.600 C 285.490 519.127,289.585 516.765,290.300 516.352 C 292.091 515.316,292.221 515.241,310.000 505.000 C 318.690 499.994,326.385 495.562,327.100 495.149 C 327.815 494.737,329.075 494.021,329.900 493.557 C 330.725 493.094,331.580 492.580,331.800 492.415 C 332.020 492.250,333.190 491.573,334.400 490.910 C 336.225 489.910,340.917 487.211,347.800 483.202 C 353.040 480.149,356.441 478.182,357.800 477.416 C 360.746 475.757,374.589 467.747,375.500 467.174 L 376.400 466.608 376.400 436.304 C 376.400 418.739,376.250 406.000,376.042 406.000 C 375.755 406.000,368.631 410.010,359.000 415.592 C 358.042 416.147,330.128 432.240,324.900 435.251 C 324.185 435.663,322.970 436.360,322.200 436.800 C 321.430 437.240,320.170 437.960,319.400 438.400 C 318.630 438.840,317.415 439.537,316.700 439.949 C 315.985 440.361,309.550 444.068,302.400 448.186 C 295.250 452.304,289.220 455.811,289.000 455.979 C 288.780 456.147,287.610 456.828,286.400 457.491 C 285.190 458.154,281.320 460.362,277.800 462.397 C 268.688 467.665,268.937 467.522,267.400 468.400 C 266.630 468.840,265.370 469.560,264.600 470.000 C 263.830 470.440,262.615 471.138,261.900 471.551 C 261.185 471.964,254.120 476.037,246.200 480.601 C 238.280 485.166,231.215 489.238,230.500 489.650 C 229.785 490.063,228.615 490.737,227.900 491.148 C 210.303 501.274,202.738 505.644,201.600 506.341 C 200.830 506.812,199.975 507.198,199.700 507.199 C 199.273 507.200,188.542 501.285,187.400 500.419 C 187.180 500.252,186.010 499.572,184.800 498.909 C 183.590 498.245,179.090 495.676,174.800 493.200 C 170.510 490.724,166.010 488.155,164.800 487.491 C 163.590 486.828,162.420 486.147,162.200 485.979 C 161.980 485.811,154.060 481.231,144.600 475.801 C 125.318 464.735,126.806 465.665,127.603 465.169 C 129.254 464.141,135.609 460.480,139.200 458.489 C 140.190 457.939,142.260 456.754,143.800 455.855 C 145.340 454.956,147.253 453.855,148.050 453.410 C 148.848 452.964,155.463 449.188,162.750 445.018 L 176.000 437.436 176.000 407.118 C 176.000 383.125,175.896 376.802,175.500 376.810 C 175.225 376.815,172.480 378.277,169.400 380.059 " stroke="none" fill="#f3f3eb" fill-rule="evenodd"></path><path id="path1" d="M197.700 0.282 C 197.205 0.378,196.800 0.623,196.800 0.828 C 196.800 1.033,196.440 1.200,196.000 1.200 C 195.560 1.200,195.200 1.380,195.200 1.600 C 195.200 1.820,194.964 2.000,194.675 2.000 C 194.387 2.000,193.764 2.360,193.292 2.800 C 192.820 3.240,192.156 3.600,191.817 3.600 C 191.478 3.600,191.200 3.780,191.200 4.000 C 191.200 4.220,190.930 4.400,190.600 4.400 C 190.270 4.400,190.000 4.580,190.000 4.800 C 190.000 5.020,189.730 5.200,189.400 5.200 C 189.070 5.200,188.800 5.346,188.800 5.525 C 188.800 5.704,188.170 6.098,187.400 6.400 C 186.630 6.702,186.000 7.096,186.000 7.275 C 186.000 7.454,185.680 7.600,185.288 7.600 C 184.897 7.600,184.317 7.960,184.000 8.400 C 183.683 8.840,183.103 9.200,182.712 9.200 C 182.320 9.200,182.000 9.380,182.000 9.600 C 182.000 9.820,181.640 10.000,181.200 10.000 C 180.760 10.000,180.400 10.180,180.400 10.400 C 180.400 10.620,180.080 10.800,179.688 10.800 C 179.297 10.800,178.717 11.160,178.400 11.600 C 178.083 12.040,177.503 12.400,177.112 12.400 C 176.720 12.400,176.400 12.580,176.400 12.800 C 176.400 13.020,176.055 13.200,175.633 13.200 C 175.212 13.200,174.807 13.358,174.733 13.551 C 174.660 13.744,173.250 14.577,171.600 15.402 C 169.950 16.227,168.510 17.018,168.400 17.159 C 168.290 17.300,166.985 18.024,165.500 18.768 C 164.015 19.511,162.800 20.229,162.800 20.362 C 162.800 20.496,162.215 20.864,161.500 21.180 C 160.785 21.497,159.851 22.080,159.425 22.478 C 158.998 22.875,158.413 23.200,158.125 23.200 C 157.836 23.200,157.600 23.380,157.600 23.600 C 157.600 23.820,157.240 24.000,156.800 24.000 C 156.360 24.000,156.000 24.180,156.000 24.400 C 156.000 24.620,155.680 24.800,155.288 24.800 C 154.897 24.800,154.317 25.160,154.000 25.600 C 153.683 26.040,153.103 26.400,152.712 26.400 C 152.320 26.400,152.000 26.580,152.000 26.800 C 152.000 27.020,151.640 27.200,151.200 27.200 C 150.760 27.200,150.400 27.380,150.400 27.600 C 150.400 27.820,150.080 28.000,149.688 28.000 C 149.297 28.000,148.717 28.360,148.400 28.800 C 148.083 29.240,147.503 29.600,147.112 29.600 C 146.720 29.600,146.400 29.780,146.400 30.000 C 146.400 30.220,146.080 30.400,145.688 30.400 C 145.297 30.400,144.717 30.760,144.400 31.200 C 144.083 31.640,143.503 32.000,143.112 32.000 C 142.720 32.000,142.400 32.180,142.400 32.400 C 142.400 32.620,142.040 32.800,141.600 32.800 C 141.160 32.800,140.800 32.980,140.800 33.200 C 140.800 33.420,140.480 33.600,140.088 33.600 C 139.697 33.600,139.117 33.960,138.800 34.400 C 138.483 34.840,137.903 35.200,137.512 35.200 C 137.120 35.200,136.800 35.380,136.800 35.600 C 136.800 35.820,136.440 36.000,136.000 36.000 C 135.560 36.000,135.200 36.180,135.200 36.400 C 135.200 36.620,134.964 36.800,134.675 36.800 C 134.387 36.800,133.764 37.160,133.292 37.600 C 132.820 38.040,132.156 38.400,131.817 38.400 C 131.478 38.400,131.200 38.580,131.200 38.800 C 131.200 39.020,130.930 39.200,130.600 39.200 C 130.270 39.200,130.000 39.380,130.000 39.600 C 130.000 39.820,129.640 40.000,129.200 40.000 C 128.760 40.000,128.400 40.163,128.400 40.362 C 128.400 40.561,127.320 41.223,126.000 41.832 C 124.680 42.442,123.600 43.089,123.600 43.270 C 123.600 43.452,123.255 43.600,122.833 43.600 C 122.412 43.600,122.007 43.735,121.933 43.900 C 121.860 44.065,120.945 44.633,119.900 45.163 C 118.855 45.692,118.000 46.277,118.000 46.463 C 118.000 46.648,117.640 46.800,117.200 46.800 C 116.760 46.800,116.400 46.980,116.400 47.200 C 116.400 47.420,116.040 47.600,115.600 47.600 C 115.160 47.600,114.800 47.780,114.800 48.000 C 114.800 48.220,114.564 48.400,114.275 48.400 C 113.987 48.400,113.364 48.760,112.892 49.200 C 112.420 49.640,111.756 50.000,111.417 50.000 C 111.078 50.000,110.800 50.180,110.800 50.400 C 110.800 50.620,110.564 50.800,110.275 50.800 C 109.987 50.800,109.364 51.160,108.892 51.600 C 108.420 52.040,107.756 52.400,107.417 52.400 C 107.078 52.400,106.800 52.546,106.800 52.725 C 106.800 52.904,106.170 53.298,105.400 53.600 C 104.630 53.902,104.000 54.296,104.000 54.475 C 104.000 54.654,103.730 54.800,103.400 54.800 C 103.070 54.800,102.800 54.946,102.800 55.125 C 102.800 55.304,102.170 55.698,101.400 56.000 C 100.630 56.302,100.000 56.696,100.000 56.875 C 100.000 57.054,99.680 57.200,99.288 57.200 C 98.897 57.200,98.317 57.560,98.000 58.000 C 97.683 58.440,97.103 58.800,96.712 58.800 C 96.320 58.800,96.000 58.980,96.000 59.200 C 96.000 59.420,95.680 59.600,95.288 59.600 C 94.897 59.600,94.317 59.960,94.000 60.400 C 93.683 60.840,93.103 61.200,92.712 61.200 C 92.320 61.200,92.000 61.380,92.000 61.600 C 92.000 61.820,91.640 62.000,91.200 62.000 C 90.760 62.000,90.400 62.180,90.400 62.400 C 90.400 62.620,90.080 62.800,89.688 62.800 C 89.297 62.800,88.717 63.160,88.400 63.600 C 88.083 64.040,87.503 64.400,87.112 64.400 C 86.720 64.400,86.400 64.580,86.400 64.800 C 86.400 65.020,86.040 65.200,85.600 65.200 C 85.160 65.200,84.800 65.380,84.800 65.600 C 84.800 65.820,84.480 66.000,84.088 66.000 C 83.697 66.000,83.117 66.360,82.800 66.800 C 82.483 67.240,81.903 67.600,81.512 67.600 C 81.120 67.600,80.800 67.780,80.800 68.000 C 80.800 68.220,80.440 68.400,80.000 68.400 C 79.560 68.400,79.200 68.545,79.200 68.723 C 79.200 68.901,78.435 69.379,77.500 69.786 C 76.565 70.192,75.048 71.037,74.128 71.663 C 73.208 72.288,72.263 72.800,72.028 72.800 C 71.793 72.800,71.600 72.980,71.600 73.200 C 71.600 73.420,71.240 73.600,70.800 73.600 C 70.360 73.600,70.000 73.780,70.000 74.000 C 70.000 74.220,69.764 74.400,69.475 74.400 C 69.187 74.400,68.564 74.760,68.092 75.200 C 67.620 75.640,66.956 76.000,66.617 76.000 C 66.278 76.000,66.000 76.180,66.000 76.400 C 66.000 76.620,65.680 76.800,65.288 76.800 C 64.897 76.800,64.317 77.160,64.000 77.600 C 63.683 78.040,63.103 78.400,62.712 78.400 C 62.320 78.400,62.000 78.580,62.000 78.800 C 62.000 79.020,61.640 79.200,61.200 79.200 C 60.760 79.200,60.400 79.380,60.400 79.600 C 60.400 79.820,60.164 80.000,59.875 80.000 C 59.587 80.000,58.964 80.360,58.492 80.800 C 58.020 81.240,57.356 81.600,57.017 81.600 C 56.678 81.600,56.400 81.780,56.400 82.000 C 56.400 82.220,56.040 82.400,55.600 82.400 C 55.160 82.400,54.800 82.580,54.800 82.800 C 54.800 83.020,54.564 83.200,54.275 83.200 C 53.987 83.200,53.364 83.560,52.892 84.000 C 52.420 84.440,51.756 84.800,51.417 84.800 C 51.078 84.800,50.800 84.980,50.800 85.200 C 50.800 85.420,50.440 85.600,50.000 85.600 C 49.560 85.600,49.200 85.780,49.200 86.000 C 49.200 86.220,48.964 86.400,48.675 86.400 C 48.387 86.400,47.802 86.715,47.375 87.100 C 46.949 87.485,46.060 88.069,45.400 88.397 C 44.740 88.726,43.909 89.311,43.553 89.697 C 43.197 90.084,42.612 90.400,42.253 90.400 C 41.894 90.400,41.600 90.580,41.600 90.800 C 41.600 91.020,41.240 91.200,40.800 91.200 C 40.360 91.200,40.000 91.380,40.000 91.600 C 40.000 91.820,39.680 92.000,39.288 92.000 C 38.897 92.000,38.317 92.360,38.000 92.800 C 37.683 93.240,37.103 93.600,36.712 93.600 C 36.320 93.600,36.000 93.780,36.000 94.000 C 36.000 94.220,35.640 94.400,35.200 94.400 C 34.760 94.400,34.400 94.580,34.400 94.800 C 34.400 95.020,34.040 95.200,33.600 95.200 C 33.160 95.200,32.800 95.349,32.800 95.532 C 32.800 95.714,31.868 96.299,30.730 96.832 C 29.591 97.364,28.466 97.980,28.230 98.200 C 27.993 98.420,26.630 99.211,25.200 99.958 C 23.770 100.705,22.510 101.428,22.400 101.564 C 22.290 101.700,21.300 102.258,20.200 102.805 C 19.100 103.352,17.851 104.114,17.425 104.499 C 16.998 104.885,16.413 105.200,16.125 105.200 C 15.836 105.200,15.600 105.380,15.600 105.600 C 15.600 105.820,15.280 106.000,14.888 106.000 C 14.497 106.000,13.917 106.360,13.600 106.800 C 13.283 107.240,12.703 107.600,12.312 107.600 C 11.920 107.600,11.600 107.780,11.600 108.000 C 11.600 108.220,11.240 108.400,10.800 108.400 C 10.360 108.400,10.000 108.580,10.000 108.800 C 10.000 109.020,9.680 109.200,9.288 109.200 C 8.897 109.200,8.317 109.560,8.000 110.000 C 7.683 110.440,7.103 110.800,6.712 110.800 C 6.320 110.800,6.000 110.980,6.000 111.200 C 6.000 111.420,5.640 111.600,5.200 111.600 C 4.760 111.600,4.400 111.780,4.400 112.000 C 4.400 112.220,4.080 112.400,3.688 112.400 C 3.297 112.400,2.717 112.760,2.400 113.200 C 2.083 113.640,1.522 114.000,1.154 114.000 C 0.787 114.000,0.380 114.275,0.251 114.610 C -0.473 116.498,0.537 486.000,1.266 486.000 C 1.670 486.000,2.000 486.180,2.000 486.400 C 2.000 486.620,2.360 486.800,2.800 486.800 C 3.240 486.800,3.600 486.980,3.600 487.200 C 3.600 487.420,3.920 487.600,4.312 487.600 C 4.703 487.600,5.283 487.960,5.600 488.400 C 5.917 488.840,6.497 489.200,6.888 489.200 C 7.280 489.200,7.600 489.380,7.600 489.600 C 7.600 489.820,7.960 490.000,8.400 490.000 C 8.840 490.000,9.200 490.180,9.200 490.400 C 9.200 490.620,9.520 490.800,9.912 490.800 C 10.303 490.800,10.883 491.160,11.200 491.600 C 11.517 492.040,12.097 492.400,12.488 492.400 C 12.880 492.400,13.200 492.580,13.200 492.800 C 13.200 493.020,13.494 493.200,13.853 493.200 C 14.212 493.200,14.797 493.518,15.153 493.907 C 15.509 494.296,16.700 495.060,17.800 495.605 C 18.900 496.150,20.033 496.817,20.319 497.088 C 20.604 497.359,21.504 497.893,22.319 498.275 C 23.133 498.657,24.024 499.188,24.298 499.455 C 24.572 499.721,25.832 500.440,27.098 501.051 C 28.364 501.662,29.490 502.282,29.600 502.429 C 29.926 502.862,33.928 504.800,34.498 504.800 C 34.787 504.800,35.283 505.160,35.600 505.600 C 35.917 506.040,36.497 506.400,36.888 506.400 C 37.280 506.400,37.600 506.580,37.600 506.800 C 37.600 507.020,37.920 507.200,38.312 507.200 C 38.703 507.200,39.283 507.560,39.600 508.000 C 39.917 508.440,40.497 508.800,40.888 508.800 C 41.280 508.800,41.600 508.980,41.600 509.200 C 41.600 509.420,41.960 509.600,42.400 509.600 C 42.840 509.600,43.200 509.780,43.200 510.000 C 43.200 510.220,43.470 510.400,43.800 510.400 C 44.130 510.400,44.400 510.580,44.400 510.800 C 44.400 511.020,44.670 511.200,45.000 511.200 C 45.330 511.200,45.600 511.380,45.600 511.600 C 45.600 511.820,45.870 512.000,46.200 512.000 C 46.530 512.000,46.800 512.180,46.800 512.400 C 46.800 512.620,47.078 512.800,47.417 512.800 C 47.756 512.800,48.420 513.160,48.892 513.600 C 49.364 514.040,49.987 514.400,50.275 514.400 C 50.564 514.400,50.800 514.580,50.800 514.800 C 50.800 515.020,51.160 515.200,51.600 515.200 C 52.040 515.200,52.400 515.380,52.400 515.600 C 52.400 515.820,52.678 516.000,53.017 516.000 C 53.356 516.000,54.020 516.360,54.492 516.800 C 54.964 517.240,55.587 517.600,55.875 517.600 C 56.164 517.600,56.400 517.780,56.400 518.000 C 56.400 518.220,56.720 518.400,57.112 518.400 C 57.503 518.400,58.083 518.760,58.400 519.200 C 58.717 519.640,59.297 520.000,59.688 520.000 C 60.080 520.000,60.400 520.180,60.400 520.400 C 60.400 520.620,60.760 520.800,61.200 520.800 C 61.640 520.800,62.000 520.980,62.000 521.200 C 62.000 521.420,62.320 521.600,62.712 521.600 C 63.103 521.600,63.683 521.960,64.000 522.400 C 64.317 522.840,64.897 523.200,65.288 523.200 C 65.680 523.200,66.000 523.380,66.000 523.600 C 66.000 523.820,66.360 524.000,66.800 524.000 C 67.240 524.000,67.600 524.180,67.600 524.400 C 67.600 524.620,67.920 524.800,68.312 524.800 C 68.703 524.800,69.283 525.160,69.600 525.600 C 69.917 526.040,70.497 526.400,70.888 526.400 C 71.280 526.400,71.600 526.580,71.600 526.800 C 71.600 527.020,71.793 527.200,72.028 527.200 C 72.263 527.200,73.208 527.707,74.128 528.327 C 75.048 528.946,76.430 529.764,77.200 530.145 C 77.970 530.525,79.140 531.174,79.800 531.589 C 80.460 532.003,81.275 532.355,81.612 532.371 C 81.948 532.387,82.483 532.760,82.800 533.200 C 83.117 533.640,83.697 534.000,84.088 534.000 C 84.480 534.000,84.800 534.180,84.800 534.400 C 84.800 534.620,85.160 534.800,85.600 534.800 C 86.040 534.800,86.400 534.980,86.400 535.200 C 86.400 535.420,86.720 535.600,87.112 535.600 C 87.503 535.600,88.083 535.960,88.400 536.400 C 88.717 536.840,89.297 537.200,89.688 537.200 C 90.080 537.200,90.400 537.380,90.400 537.600 C 90.400 537.820,90.720 538.000,91.112 538.000 C 91.503 538.000,92.083 538.360,92.400 538.800 C 92.717 539.240,93.297 539.600,93.688 539.600 C 94.080 539.600,94.400 539.780,94.400 540.000 C 94.400 540.220,94.760 540.400,95.200 540.400 C 95.640 540.400,96.000 540.580,96.000 540.800 C 96.000 541.020,96.320 541.200,96.712 541.200 C 97.103 541.200,97.683 541.560,98.000 542.000 C 98.317 542.440,98.897 542.800,99.288 542.800 C 99.680 542.800,100.000 542.936,100.000 543.102 C 100.000 543.269,100.585 543.664,101.300 543.980 C 102.015 544.297,102.949 544.880,103.375 545.278 C 103.802 545.675,104.387 546.000,104.675 546.000 C 104.964 546.000,105.200 546.180,105.200 546.400 C 105.200 546.620,105.478 546.800,105.817 546.800 C 106.156 546.800,106.820 547.160,107.292 547.600 C 107.764 548.040,108.387 548.400,108.675 548.400 C 108.964 548.400,109.200 548.580,109.200 548.800 C 109.200 549.020,109.560 549.200,110.000 549.200 C 110.440 549.200,110.800 549.380,110.800 549.600 C 110.800 549.820,111.078 550.000,111.417 550.000 C 111.756 550.000,112.420 550.360,112.892 550.800 C 113.364 551.240,113.987 551.600,114.275 551.600 C 114.564 551.600,114.800 551.780,114.800 552.000 C 114.800 552.220,115.078 552.400,115.417 552.400 C 115.756 552.400,116.420 552.760,116.892 553.200 C 117.364 553.640,117.987 554.000,118.275 554.000 C 118.564 554.000,118.800 554.180,118.800 554.400 C 118.800 554.620,119.160 554.800,119.600 554.800 C 120.040 554.800,120.400 554.980,120.400 555.200 C 120.400 555.420,120.760 555.600,121.200 555.600 C 121.640 555.600,122.000 555.735,122.000 555.901 C 122.000 556.066,122.855 556.648,123.900 557.195 C 124.945 557.741,126.038 558.416,126.329 558.694 C 126.619 558.972,127.204 559.200,127.629 559.200 C 128.053 559.200,128.400 559.346,128.400 559.525 C 128.400 559.704,129.030 560.098,129.800 560.400 C 130.570 560.702,131.200 561.096,131.200 561.275 C 131.200 561.454,131.470 561.600,131.800 561.600 C 132.130 561.600,132.400 561.780,132.400 562.000 C 132.400 562.220,132.670 562.400,133.000 562.400 C 133.330 562.400,133.600 562.580,133.600 562.800 C 133.600 563.020,133.960 563.200,134.400 563.200 C 134.840 563.200,135.200 563.380,135.200 563.600 C 135.200 563.820,135.520 564.000,135.912 564.000 C 136.303 564.000,136.883 564.360,137.200 564.800 C 137.517 565.240,138.097 565.600,138.488 565.600 C 138.880 565.600,139.200 565.780,139.200 566.000 C 139.200 566.220,139.520 566.400,139.912 566.400 C 140.303 566.400,140.883 566.760,141.200 567.200 C 141.517 567.640,142.097 568.000,142.488 568.000 C 142.880 568.000,143.200 568.180,143.200 568.400 C 143.200 568.620,143.560 568.800,144.000 568.800 C 144.440 568.800,144.800 568.980,144.800 569.200 C 144.800 569.420,145.120 569.600,145.512 569.600 C 145.903 569.600,146.483 569.960,146.800 570.400 C 147.117 570.840,147.697 571.200,148.088 571.200 C 148.480 571.200,148.800 571.380,148.800 571.600 C 148.800 571.820,149.120 572.000,149.512 572.000 C 149.903 572.000,150.483 572.360,150.800 572.800 C 151.117 573.240,151.697 573.600,152.088 573.600 C 152.480 573.600,152.800 573.780,152.800 574.000 C 152.800 574.220,153.160 574.400,153.600 574.400 C 154.040 574.400,154.400 574.580,154.400 574.800 C 154.400 575.020,154.720 575.200,155.112 575.200 C 155.503 575.200,156.083 575.560,156.400 576.000 C 156.717 576.440,157.297 576.800,157.688 576.800 C 158.080 576.800,158.400 576.980,158.400 577.200 C 158.400 577.420,158.636 577.600,158.925 577.600 C 159.213 577.600,159.798 577.915,160.225 578.301 C 160.651 578.686,161.900 579.448,163.000 579.995 C 164.100 580.542,165.090 581.095,165.200 581.224 C 165.310 581.354,166.210 581.896,167.200 582.430 C 168.190 582.963,169.060 583.535,169.133 583.700 C 169.207 583.865,169.612 584.000,170.033 584.000 C 170.455 584.000,170.800 584.147,170.800 584.326 C 170.800 584.506,171.880 585.169,173.200 585.800 C 174.520 586.431,175.600 587.094,175.600 587.274 C 175.600 587.453,175.960 587.600,176.400 587.600 C 176.840 587.600,177.200 587.780,177.200 588.000 C 177.200 588.220,177.560 588.400,178.000 588.400 C 178.440 588.400,178.800 588.580,178.800 588.800 C 178.800 589.020,179.120 589.200,179.512 589.200 C 179.903 589.200,180.483 589.560,180.800 590.000 C 181.117 590.440,181.697 590.800,182.088 590.800 C 182.480 590.800,182.800 590.980,182.800 591.200 C 182.800 591.420,183.120 591.600,183.512 591.600 C 183.903 591.600,184.483 591.960,184.800 592.400 C 185.117 592.840,185.697 593.200,186.088 593.200 C 186.480 593.200,186.800 593.336,186.800 593.502 C 186.800 593.669,187.385 594.064,188.100 594.380 C 188.815 594.697,189.749 595.280,190.175 595.678 C 190.602 596.075,191.187 596.400,191.475 596.400 C 191.764 596.400,192.000 596.580,192.000 596.800 C 192.000 597.020,192.278 597.200,192.617 597.200 C 192.956 597.200,193.620 597.560,194.092 598.000 C 194.564 598.440,195.187 598.800,195.475 598.800 C 195.764 598.800,196.000 598.980,196.000 599.200 C 196.000 599.420,196.345 599.600,196.767 599.600 C 197.188 599.600,197.593 599.778,197.667 599.995 C 197.923 600.754,201.393 600.950,202.098 600.244 C 202.453 599.890,203.026 599.600,203.371 599.600 C 203.717 599.600,204.000 599.420,204.000 599.200 C 204.000 598.980,204.360 598.800,204.800 598.800 C 205.240 598.800,205.600 598.620,205.600 598.400 C 205.600 598.180,205.836 598.000,206.125 598.000 C 206.413 598.000,207.036 597.640,207.508 597.200 C 207.980 596.760,208.644 596.400,208.983 596.400 C 209.322 596.400,209.600 596.220,209.600 596.000 C 209.600 595.780,209.870 595.600,210.200 595.600 C 210.530 595.600,210.800 595.420,210.800 595.200 C 210.800 594.980,211.070 594.800,211.400 594.800 C 211.730 594.800,212.000 594.620,212.000 594.400 C 212.000 594.180,212.270 594.000,212.600 594.000 C 212.930 594.000,213.200 593.820,213.200 593.600 C 213.200 593.380,213.560 593.200,214.000 593.200 C 214.440 593.200,214.800 593.020,214.800 592.800 C 214.800 592.580,215.120 592.400,215.512 592.400 C 215.903 592.400,216.483 592.040,216.800 591.600 C 217.117 591.160,217.697 590.800,218.088 590.800 C 218.480 590.800,218.800 590.620,218.800 590.400 C 218.800 590.180,219.120 590.000,219.512 590.000 C 219.903 590.000,220.483 589.640,220.800 589.200 C 221.117 588.760,221.697 588.400,222.088 588.400 C 222.480 588.400,222.800 588.220,222.800 588.000 C 222.800 587.780,223.145 587.600,223.567 587.600 C 223.988 587.600,224.393 587.442,224.467 587.249 C 224.540 587.056,225.950 586.223,227.600 585.398 C 229.250 584.573,230.690 583.786,230.800 583.649 C 230.910 583.512,231.810 582.963,232.800 582.430 C 233.790 581.896,234.690 581.354,234.800 581.224 C 234.910 581.095,235.900 580.542,237.000 579.995 C 238.100 579.448,239.349 578.686,239.775 578.301 C 240.202 577.915,240.787 577.600,241.075 577.600 C 241.364 577.600,241.600 577.420,241.600 577.200 C 241.600 576.980,241.920 576.800,242.312 576.800 C 242.703 576.800,243.283 576.440,243.600 576.000 C 243.917 575.560,244.497 575.200,244.888 575.200 C 245.280 575.200,245.600 575.020,245.600 574.800 C 245.600 574.580,245.920 574.400,246.312 574.400 C 246.703 574.400,247.283 574.040,247.600 573.600 C 247.917 573.160,248.497 572.800,248.888 572.800 C 249.280 572.800,249.600 572.620,249.600 572.400 C 249.600 572.180,249.960 572.000,250.400 572.000 C 250.840 572.000,251.200 571.820,251.200 571.600 C 251.200 571.380,251.520 571.200,251.912 571.200 C 252.303 571.200,252.883 570.840,253.200 570.400 C 253.517 569.960,254.097 569.600,254.488 569.600 C 254.880 569.600,255.200 569.420,255.200 569.200 C 255.200 568.980,255.520 568.800,255.912 568.800 C 256.303 568.800,256.883 568.440,257.200 568.000 C 257.517 567.560,258.097 567.200,258.488 567.200 C 258.880 567.200,259.200 567.020,259.200 566.800 C 259.200 566.580,259.560 566.400,260.000 566.400 C 260.440 566.400,260.800 566.220,260.800 566.000 C 260.800 565.780,261.036 565.600,261.325 565.600 C 261.613 565.600,262.236 565.240,262.708 564.800 C 263.180 564.360,263.844 564.000,264.183 564.000 C 264.522 564.000,264.800 563.820,264.800 563.600 C 264.800 563.380,265.036 563.200,265.325 563.200 C 265.613 563.200,266.236 562.840,266.708 562.400 C 267.180 561.960,267.844 561.600,268.183 561.600 C 268.522 561.600,268.800 561.420,268.800 561.200 C 268.800 560.980,269.070 560.800,269.400 560.800 C 269.730 560.800,270.000 560.656,270.000 560.480 C 270.000 560.304,271.440 559.458,273.200 558.600 C 274.960 557.742,276.400 556.896,276.400 556.720 C 276.400 556.544,276.760 556.400,277.200 556.400 C 277.640 556.400,278.000 556.220,278.000 556.000 C 278.000 555.780,278.236 555.600,278.525 555.600 C 278.813 555.600,279.436 555.240,279.908 554.800 C 280.380 554.360,281.044 554.000,281.383 554.000 C 281.722 554.000,282.000 553.820,282.000 553.600 C 282.000 553.380,282.320 553.200,282.712 553.200 C 283.103 553.200,283.683 552.840,284.000 552.400 C 284.317 551.960,284.897 551.600,285.288 551.600 C 285.680 551.600,286.000 551.420,286.000 551.200 C 286.000 550.980,286.360 550.800,286.800 550.800 C 287.240 550.800,287.600 550.620,287.600 550.400 C 287.600 550.180,287.836 550.000,288.125 550.000 C 288.413 550.000,289.036 549.640,289.508 549.200 C 289.980 548.760,290.644 548.400,290.983 548.400 C 291.322 548.400,291.600 548.220,291.600 548.000 C 291.600 547.780,291.836 547.600,292.125 547.600 C 292.413 547.600,293.036 547.240,293.508 546.800 C 293.980 546.360,294.644 546.000,294.983 546.000 C 295.322 546.000,295.600 545.864,295.600 545.698 C 295.600 545.531,296.185 545.140,296.900 544.828 C 297.615 544.516,298.491 543.932,298.847 543.530 C 299.203 543.129,299.788 542.800,300.147 542.800 C 300.506 542.800,300.800 542.620,300.800 542.400 C 300.800 542.180,301.120 542.000,301.512 542.000 C 301.903 542.000,302.483 541.640,302.800 541.200 C 303.117 540.760,303.697 540.400,304.088 540.400 C 304.480 540.400,304.800 540.220,304.800 540.000 C 304.800 539.780,305.120 539.600,305.512 539.600 C 305.903 539.600,306.483 539.240,306.800 538.800 C 307.117 538.360,307.697 538.000,308.088 538.000 C 308.480 538.000,308.800 537.820,308.800 537.600 C 308.800 537.380,309.160 537.200,309.600 537.200 C 310.040 537.200,310.400 537.020,310.400 536.800 C 310.400 536.580,310.720 536.400,311.112 536.400 C 311.503 536.400,312.083 536.040,312.400 535.600 C 312.717 535.160,313.297 534.800,313.688 534.800 C 314.080 534.800,314.400 534.620,314.400 534.400 C 314.400 534.180,314.720 534.000,315.112 534.000 C 315.503 534.000,316.083 533.640,316.400 533.200 C 316.717 532.760,317.172 532.400,317.410 532.400 C 318.141 532.400,321.793 530.444,325.065 528.300 C 325.989 527.695,326.937 527.200,327.172 527.200 C 327.407 527.200,327.600 527.020,327.600 526.800 C 327.600 526.580,327.920 526.400,328.312 526.400 C 328.703 526.400,329.283 526.040,329.600 525.600 C 329.917 525.160,330.497 524.800,330.888 524.800 C 331.280 524.800,331.600 524.620,331.600 524.400 C 331.600 524.180,331.960 524.000,332.400 524.000 C 332.840 524.000,333.200 523.820,333.200 523.600 C 333.200 523.380,333.520 523.200,333.912 523.200 C 334.303 523.200,334.883 522.840,335.200 522.400 C 335.517 521.960,336.097 521.600,336.488 521.600 C 336.880 521.600,337.200 521.420,337.200 521.200 C 337.200 520.980,337.520 520.800,337.912 520.800 C 338.303 520.800,338.883 520.440,339.200 520.000 C 339.517 519.560,340.097 519.200,340.488 519.200 C 340.880 519.200,341.200 519.020,341.200 518.800 C 341.200 518.580,341.560 518.400,342.000 518.400 C 342.440 518.400,342.800 518.220,342.800 518.000 C 342.800 517.780,343.036 517.600,343.325 517.600 C 343.613 517.600,344.236 517.240,344.708 516.800 C 345.180 516.360,345.844 516.000,346.183 516.000 C 346.522 516.000,346.800 515.820,346.800 515.600 C 346.800 515.380,347.036 515.200,347.325 515.200 C 347.613 515.200,348.236 514.840,348.708 514.400 C 349.180 513.960,349.844 513.600,350.183 513.600 C 350.522 513.600,350.800 513.420,350.800 513.200 C 350.800 512.980,351.036 512.800,351.325 512.800 C 351.613 512.800,352.236 512.440,352.708 512.000 C 353.180 511.560,353.844 511.200,354.183 511.200 C 354.522 511.200,354.800 511.020,354.800 510.800 C 354.800 510.580,355.070 510.400,355.400 510.400 C 355.730 510.400,356.000 510.220,356.000 510.000 C 356.000 509.780,356.320 509.600,356.712 509.600 C 357.103 509.600,357.683 509.240,358.000 508.800 C 358.317 508.360,358.897 508.000,359.288 508.000 C 359.680 508.000,360.000 507.820,360.000 507.600 C 360.000 507.380,360.320 507.200,360.712 507.200 C 361.103 507.200,361.683 506.840,362.000 506.400 C 362.317 505.960,362.897 505.600,363.288 505.600 C 363.680 505.600,364.000 505.420,364.000 505.200 C 364.000 504.980,364.335 504.800,364.744 504.800 C 365.153 504.800,366.098 504.393,366.844 503.895 C 367.590 503.398,369.055 502.543,370.100 501.996 C 371.145 501.449,372.000 500.866,372.000 500.701 C 372.000 500.535,372.360 500.400,372.800 500.400 C 373.240 500.400,373.600 500.220,373.600 500.000 C 373.600 499.780,373.836 499.600,374.125 499.600 C 374.413 499.600,375.036 499.240,375.508 498.800 C 375.980 498.360,376.644 498.000,376.983 498.000 C 377.322 498.000,377.600 497.854,377.600 497.675 C 377.600 497.496,378.230 497.102,379.000 496.800 C 379.770 496.498,380.400 496.104,380.400 495.925 C 380.400 495.746,380.670 495.600,381.000 495.600 C 381.330 495.600,381.600 495.464,381.600 495.298 C 381.600 495.131,382.185 494.740,382.900 494.428 C 383.615 494.116,384.491 493.532,384.847 493.130 C 385.203 492.729,385.788 492.400,386.147 492.400 C 386.506 492.400,386.800 492.220,386.800 492.000 C 386.800 491.780,387.160 491.600,387.600 491.600 C 388.040 491.600,388.400 491.420,388.400 491.200 C 388.400 490.980,388.720 490.800,389.112 490.800 C 389.503 490.800,390.083 490.440,390.400 490.000 C 390.717 489.560,391.297 489.200,391.688 489.200 C 392.080 489.200,392.400 489.020,392.400 488.800 C 392.400 488.580,392.720 488.400,393.112 488.400 C 393.503 488.400,394.083 488.040,394.400 487.600 C 394.717 487.160,395.297 486.800,395.688 486.800 C 396.080 486.800,396.400 486.620,396.400 486.400 C 396.400 486.180,396.678 486.000,397.018 486.000 C 397.358 486.000,398.066 485.571,398.591 485.046 L 399.545 484.091 399.835 300.923 C 400.133 113.283,400.146 115.600,398.792 115.600 C 398.357 115.600,398.000 115.420,398.000 115.200 C 398.000 114.980,397.680 114.800,397.288 114.800 C 396.897 114.800,396.317 114.440,396.000 114.000 C 395.683 113.560,395.103 113.200,394.712 113.200 C 394.320 113.200,394.000 113.020,394.000 112.800 C 394.000 112.580,393.640 112.400,393.200 112.400 C 392.760 112.400,392.400 112.220,392.400 112.000 C 392.400 111.780,392.080 111.600,391.688 111.600 C 391.297 111.600,390.717 111.240,390.400 110.800 C 390.083 110.360,389.503 110.000,389.112 110.000 C 388.720 110.000,388.400 109.820,388.400 109.600 C 388.400 109.380,388.080 109.200,387.688 109.200 C 387.297 109.200,386.717 108.840,386.400 108.400 C 386.083 107.960,385.503 107.600,385.112 107.600 C 384.720 107.600,384.400 107.420,384.400 107.200 C 384.400 106.980,384.164 106.800,383.875 106.800 C 383.587 106.800,383.002 106.475,382.575 106.078 C 382.149 105.680,381.215 105.097,380.500 104.780 C 379.785 104.464,379.200 104.069,379.200 103.902 C 379.200 103.736,378.922 103.600,378.583 103.600 C 378.244 103.600,377.580 103.240,377.108 102.800 C 376.636 102.360,376.013 102.000,375.725 102.000 C 375.436 102.000,375.200 101.820,375.200 101.600 C 375.200 101.380,374.840 101.200,374.400 101.200 C 373.960 101.200,373.600 101.065,373.600 100.899 C 373.600 100.734,372.745 100.153,371.700 99.609 C 370.655 99.065,369.710 98.504,369.600 98.362 C 369.264 97.930,365.261 96.000,364.702 96.000 C 364.413 96.000,363.917 95.640,363.600 95.200 C 363.283 94.760,362.703 94.400,362.312 94.400 C 361.920 94.400,361.600 94.220,361.600 94.000 C 361.600 93.780,361.280 93.600,360.888 93.600 C 360.497 93.600,359.917 93.240,359.600 92.800 C 359.283 92.360,358.703 92.000,358.312 92.000 C 357.920 92.000,357.600 91.820,357.600 91.600 C 357.600 91.380,357.364 91.200,357.075 91.200 C 356.787 91.200,356.202 90.875,355.775 90.478 C 355.349 90.080,354.415 89.497,353.700 89.180 C 352.985 88.864,352.400 88.469,352.400 88.302 C 352.400 88.136,352.122 88.000,351.783 88.000 C 351.444 88.000,350.780 87.640,350.308 87.200 C 349.836 86.760,349.213 86.400,348.925 86.400 C 348.636 86.400,348.400 86.220,348.400 86.000 C 348.400 85.780,348.122 85.600,347.783 85.600 C 347.444 85.600,346.780 85.240,346.308 84.800 C 345.836 84.360,345.213 84.000,344.925 84.000 C 344.636 84.000,344.400 83.820,344.400 83.600 C 344.400 83.380,344.080 83.200,343.688 83.200 C 343.297 83.200,342.717 82.840,342.400 82.400 C 342.083 81.960,341.503 81.600,341.112 81.600 C 340.720 81.600,340.400 81.420,340.400 81.200 C 340.400 80.980,340.040 80.800,339.600 80.800 C 339.160 80.800,338.800 80.620,338.800 80.400 C 338.800 80.180,338.480 80.000,338.088 80.000 C 337.697 80.000,337.117 79.640,336.800 79.200 C 336.483 78.760,335.903 78.400,335.512 78.400 C 335.120 78.400,334.800 78.220,334.800 78.000 C 334.800 77.780,334.480 77.600,334.088 77.600 C 333.697 77.600,333.117 77.240,332.800 76.800 C 332.483 76.360,331.903 76.000,331.512 76.000 C 331.120 76.000,330.800 75.820,330.800 75.600 C 330.800 75.380,330.522 75.200,330.183 75.200 C 329.844 75.200,329.180 74.840,328.708 74.400 C 328.236 73.960,327.613 73.600,327.325 73.600 C 327.036 73.600,326.800 73.464,326.800 73.298 C 326.800 73.131,326.215 72.742,325.500 72.432 C 324.785 72.123,323.480 71.384,322.600 70.790 C 321.720 70.196,320.595 69.583,320.100 69.428 C 319.605 69.273,319.200 68.978,319.200 68.773 C 319.200 68.568,318.840 68.400,318.400 68.400 C 317.960 68.400,317.600 68.220,317.600 68.000 C 317.600 67.780,317.280 67.600,316.888 67.600 C 316.497 67.600,315.917 67.240,315.600 66.800 C 315.283 66.360,314.703 66.000,314.312 66.000 C 313.920 66.000,313.600 65.820,313.600 65.600 C 313.600 65.380,313.240 65.200,312.800 65.200 C 312.360 65.200,312.000 65.020,312.000 64.800 C 312.000 64.580,311.680 64.400,311.288 64.400 C 310.897 64.400,310.317 64.040,310.000 63.600 C 309.683 63.160,309.103 62.800,308.712 62.800 C 308.320 62.800,308.000 62.620,308.000 62.400 C 308.000 62.180,307.680 62.000,307.288 62.000 C 306.897 62.000,306.317 61.640,306.000 61.200 C 305.683 60.760,305.103 60.400,304.712 60.400 C 304.320 60.400,304.000 60.220,304.000 60.000 C 304.000 59.780,303.680 59.600,303.288 59.600 C 302.897 59.600,302.317 59.240,302.000 58.800 C 301.683 58.360,301.103 58.000,300.712 58.000 C 300.320 58.000,300.000 57.854,300.000 57.675 C 300.000 57.496,299.370 57.102,298.600 56.800 C 297.830 56.498,297.200 56.104,297.200 55.925 C 297.200 55.746,296.930 55.600,296.600 55.600 C 296.270 55.600,296.000 55.420,296.000 55.200 C 296.000 54.980,295.730 54.800,295.400 54.800 C 295.070 54.800,294.800 54.620,294.800 54.400 C 294.800 54.180,294.522 54.000,294.183 54.000 C 293.844 54.000,293.180 53.640,292.708 53.200 C 292.236 52.760,291.613 52.400,291.325 52.400 C 291.036 52.400,290.800 52.220,290.800 52.000 C 290.800 51.780,290.522 51.600,290.183 51.600 C 289.844 51.600,289.180 51.240,288.708 50.800 C 288.236 50.360,287.613 50.000,287.325 50.000 C 287.036 50.000,286.800 49.820,286.800 49.600 C 286.800 49.380,286.440 49.200,286.000 49.200 C 285.560 49.200,285.200 49.020,285.200 48.800 C 285.200 48.580,284.922 48.400,284.583 48.400 C 284.244 48.400,283.580 48.040,283.108 47.600 C 282.636 47.160,282.013 46.800,281.725 46.800 C 281.436 46.800,281.200 46.620,281.200 46.400 C 281.200 46.180,280.840 46.000,280.400 46.000 C 279.960 46.000,279.600 45.865,279.600 45.699 C 279.600 45.534,278.745 44.952,277.700 44.405 C 276.655 43.859,275.597 43.219,275.350 42.984 C 275.102 42.749,273.887 42.120,272.650 41.586 C 271.412 41.052,270.400 40.476,270.400 40.307 C 270.400 40.138,270.130 40.000,269.800 40.000 C 269.470 40.000,269.200 39.820,269.200 39.600 C 269.200 39.380,268.930 39.200,268.600 39.200 C 268.270 39.200,268.000 39.020,268.000 38.800 C 268.000 38.580,267.722 38.400,267.383 38.400 C 267.044 38.400,266.380 38.040,265.908 37.600 C 265.436 37.160,264.813 36.800,264.525 36.800 C 264.236 36.800,264.000 36.620,264.000 36.400 C 264.000 36.180,263.680 36.000,263.288 36.000 C 262.897 36.000,262.317 35.640,262.000 35.200 C 261.683 34.760,261.103 34.400,260.712 34.400 C 260.320 34.400,260.000 34.220,260.000 34.000 C 260.000 33.780,259.640 33.600,259.200 33.600 C 258.760 33.600,258.400 33.420,258.400 33.200 C 258.400 32.980,258.080 32.800,257.688 32.800 C 257.297 32.800,256.717 32.440,256.400 32.000 C 256.083 31.560,255.503 31.200,255.112 31.200 C 254.720 31.200,254.400 31.020,254.400 30.800 C 254.400 30.580,254.080 30.400,253.688 30.400 C 253.297 30.400,252.717 30.040,252.400 29.600 C 252.083 29.160,251.503 28.800,251.112 28.800 C 250.720 28.800,250.400 28.620,250.400 28.400 C 250.400 28.180,250.080 28.000,249.688 28.000 C 249.297 28.000,248.717 27.640,248.400 27.200 C 248.083 26.760,247.503 26.400,247.112 26.400 C 246.720 26.400,246.400 26.220,246.400 26.000 C 246.400 25.780,246.040 25.600,245.600 25.600 C 245.160 25.600,244.800 25.420,244.800 25.200 C 244.800 24.980,244.506 24.800,244.147 24.800 C 243.788 24.800,243.203 24.482,242.847 24.093 C 242.491 23.704,241.345 22.956,240.300 22.430 C 239.255 21.904,238.400 21.356,238.400 21.212 C 238.400 21.067,237.770 20.702,237.000 20.400 C 236.230 20.098,235.600 19.747,235.600 19.621 C 235.600 19.495,234.385 18.764,232.900 17.996 C 231.415 17.229,230.007 16.421,229.770 16.200 C 229.534 15.980,228.409 15.364,227.270 14.832 C 226.132 14.299,225.200 13.714,225.200 13.532 C 225.200 13.349,224.840 13.200,224.400 13.200 C 223.960 13.200,223.600 13.020,223.600 12.800 C 223.600 12.580,223.280 12.400,222.888 12.400 C 222.497 12.400,221.917 12.040,221.600 11.600 C 221.283 11.160,220.703 10.800,220.312 10.800 C 219.920 10.800,219.600 10.620,219.600 10.400 C 219.600 10.180,219.240 10.000,218.800 10.000 C 218.360 10.000,218.000 9.820,218.000 9.600 C 218.000 9.380,217.680 9.200,217.288 9.200 C 216.897 9.200,216.317 8.840,216.000 8.400 C 215.683 7.960,215.103 7.600,214.712 7.600 C 214.320 7.600,214.000 7.420,214.000 7.200 C 214.000 6.980,213.730 6.800,213.400 6.800 C 213.070 6.800,212.800 6.620,212.800 6.400 C 212.800 6.180,212.530 6.000,212.200 6.000 C 211.870 6.000,211.600 5.854,211.600 5.675 C 211.600 5.496,210.970 5.102,210.200 4.800 C 209.430 4.498,208.800 4.104,208.800 3.925 C 208.800 3.746,208.480 3.600,208.088 3.600 C 207.697 3.600,207.117 3.240,206.800 2.800 C 206.483 2.360,205.903 2.000,205.512 2.000 C 205.120 2.000,204.800 1.820,204.800 1.600 C 204.800 1.380,204.517 1.200,204.171 1.200 C 203.826 1.200,203.273 0.930,202.943 0.600 C 202.364 0.022,199.846 -0.131,197.700 0.282 M202.088 33.144 C 202.810 33.553,204.390 34.479,205.600 35.200 C 206.810 35.921,208.340 36.826,209.000 37.210 C 209.660 37.594,212.270 39.127,214.800 40.615 C 221.161 44.358,225.969 47.171,227.447 48.015 C 228.132 48.406,229.906 49.463,231.388 50.363 C 232.869 51.263,234.157 52.000,234.249 52.000 C 234.342 52.000,235.088 52.427,235.909 52.949 C 237.210 53.777,244.315 57.995,247.800 60.008 C 252.527 62.738,259.314 66.697,263.200 68.992 C 265.730 70.486,268.340 72.021,269.000 72.403 C 269.660 72.785,271.820 74.044,273.800 75.200 C 275.780 76.356,277.940 77.613,278.600 77.993 C 279.260 78.372,281.690 79.816,284.000 81.200 C 286.310 82.584,288.740 84.028,289.400 84.407 C 291.138 85.407,295.990 88.244,308.115 95.350 C 314.009 98.805,319.427 101.966,320.156 102.375 C 320.885 102.785,322.813 103.920,324.440 104.899 C 327.221 106.570,331.071 108.832,333.800 110.397 C 334.460 110.776,336.980 112.255,339.400 113.684 C 341.820 115.114,346.050 117.599,348.800 119.207 C 358.909 125.120,365.473 128.979,368.360 130.708 C 369.987 131.683,371.922 132.822,372.660 133.240 C 373.397 133.658,374.605 134.343,375.345 134.762 C 376.085 135.182,377.075 135.765,377.545 136.059 L 378.400 136.592 378.400 240.400 L 378.400 344.208 377.545 344.741 C 377.075 345.035,376.130 345.597,375.445 345.990 C 356.440 356.907,347.049 362.292,345.600 363.106 C 344.610 363.661,339.795 366.423,334.900 369.242 C 330.005 372.062,325.956 374.330,325.902 374.284 C 325.848 374.238,325.713 327.157,325.602 269.661 L 325.400 165.122 323.600 164.104 C 321.534 162.937,319.760 161.923,317.900 160.849 C 314.898 159.115,295.269 147.840,293.800 147.005 C 292.920 146.505,289.029 144.275,285.154 142.048 C 281.279 139.822,277.905 138.000,277.655 138.000 C 277.318 138.000,277.175 172.010,277.101 270.479 L 277.000 402.957 273.749 404.831 C 271.960 405.862,269.440 407.283,268.149 407.991 C 266.857 408.698,265.620 409.413,265.400 409.581 C 265.180 409.748,264.010 410.424,262.800 411.083 C 261.590 411.743,259.925 412.669,259.100 413.141 C 255.752 415.058,254.518 415.759,252.800 416.718 C 251.810 417.271,248.120 419.377,244.600 421.397 C 237.475 425.486,235.224 426.758,232.000 428.516 C 230.790 429.175,229.620 429.850,229.400 430.016 C 228.103 430.990,225.122 432.399,224.791 432.194 C 224.537 432.038,224.398 374.892,224.394 269.676 C 224.391 180.424,224.256 107.209,224.094 106.976 C 223.932 106.743,221.820 105.416,219.400 104.027 C 216.980 102.639,214.460 101.188,213.800 100.804 C 204.194 95.211,200.590 93.200,200.173 93.200 C 199.897 93.200,195.740 95.474,190.935 98.252 C 180.372 104.362,180.256 104.429,178.000 105.704 L 176.200 106.722 176.000 211.252 L 175.800 315.783 171.200 318.483 C 168.670 319.968,166.150 321.430,165.600 321.732 C 165.050 322.035,162.350 323.591,159.600 325.191 C 156.850 326.790,154.015 328.437,153.300 328.850 C 152.585 329.262,151.415 329.938,150.700 330.350 C 149.985 330.763,147.150 332.405,144.400 334.000 C 141.650 335.595,138.770 337.256,138.000 337.692 C 137.230 338.127,133.698 340.175,130.151 342.242 C 126.604 344.309,123.589 346.000,123.451 346.000 C 122.919 346.000,123.168 76.524,123.700 76.085 C 124.193 75.678,156.523 57.034,160.800 54.690 C 162.010 54.027,163.180 53.350,163.400 53.185 C 163.620 53.020,164.475 52.506,165.300 52.043 C 166.125 51.579,167.430 50.840,168.200 50.400 C 168.970 49.960,170.230 49.240,171.000 48.800 C 172.943 47.690,173.462 47.390,187.200 39.460 C 200.192 31.960,200.082 32.006,202.088 33.144 M99.103 121.054 C 99.183 144.783,99.099 151.185,98.703 151.512 C 98.426 151.740,96.580 152.866,94.600 154.014 C 92.620 155.163,90.460 156.417,89.800 156.802 C 85.854 159.100,78.391 163.417,77.200 164.090 C 74.123 165.828,74.400 162.713,74.400 195.629 C 74.400 218.442,74.510 225.170,74.887 225.296 C 75.154 225.385,76.787 224.590,78.516 223.529 C 80.244 222.468,81.721 221.600,81.797 221.600 C 81.873 221.600,83.525 220.638,85.468 219.462 C 94.624 213.922,98.148 211.971,98.652 212.165 C 99.213 212.380,99.512 269.798,98.963 271.843 C 98.771 272.557,95.624 274.718,91.400 277.036 C 90.960 277.277,89.970 277.841,89.200 278.289 C 88.430 278.736,84.922 280.759,81.404 282.783 C 77.886 284.808,74.874 286.675,74.710 286.932 C 74.546 287.189,74.409 306.953,74.406 330.851 C 74.401 365.118,74.294 374.390,73.900 374.717 C 73.397 375.134,62.498 381.460,58.400 383.713 C 57.190 384.378,55.750 385.227,55.200 385.600 C 54.650 385.973,53.210 386.821,52.000 387.484 C 50.790 388.148,45.230 391.325,39.644 394.545 C 34.057 397.765,29.450 400.400,29.405 400.400 C 29.360 400.400,27.810 401.300,25.961 402.400 C 24.113 403.500,22.375 404.400,22.100 404.400 C 21.701 404.400,21.600 377.191,21.600 269.685 L 21.600 134.970 24.300 133.396 C 25.785 132.530,27.360 131.620,27.800 131.374 C 28.240 131.127,29.230 130.560,30.000 130.114 C 31.424 129.290,53.525 116.520,55.900 115.150 C 56.615 114.737,57.785 114.063,58.500 113.651 C 59.215 113.240,61.389 111.980,63.332 110.851 C 65.274 109.723,66.951 108.800,67.059 108.800 C 67.167 108.800,68.041 108.260,69.000 107.600 C 69.959 106.940,70.839 106.400,70.954 106.400 C 71.070 106.400,72.118 105.834,73.282 105.141 C 74.447 104.449,76.300 103.382,77.400 102.770 C 78.500 102.158,83.540 99.227,88.600 96.256 C 93.660 93.286,98.070 90.890,98.400 90.933 C 98.926 91.001,99.013 94.702,99.103 121.054 M176.000 407.118 L 176.000 437.436 162.750 445.018 C 155.463 449.188,148.848 452.964,148.050 453.410 C 147.253 453.855,145.340 454.956,143.800 455.855 C 142.260 456.754,140.190 457.939,139.200 458.489 C 136.670 459.892,132.740 462.136,130.000 463.742 C 127.183 465.393,126.994 465.528,127.203 465.735 C 127.311 465.842,135.140 470.372,144.600 475.801 C 154.060 481.231,161.980 485.811,162.200 485.979 C 162.420 486.147,163.590 486.828,164.800 487.491 C 166.010 488.155,170.510 490.724,174.800 493.200 C 179.090 495.676,183.590 498.245,184.800 498.909 C 186.010 499.572,187.180 500.252,187.400 500.419 C 188.542 501.285,199.273 507.200,199.700 507.199 C 199.975 507.198,200.830 506.812,201.600 506.341 C 202.738 505.644,210.303 501.274,227.900 491.148 C 228.615 490.737,229.785 490.063,230.500 489.650 C 231.215 489.238,238.280 485.166,246.200 480.601 C 254.120 476.037,261.185 471.964,261.900 471.551 C 262.615 471.138,263.830 470.440,264.600 470.000 C 265.370 469.560,266.630 468.840,267.400 468.400 C 268.937 467.522,268.688 467.665,277.800 462.397 C 281.320 460.362,285.190 458.154,286.400 457.491 C 287.610 456.828,288.780 456.147,289.000 455.979 C 289.220 455.811,295.250 452.304,302.400 448.186 C 309.550 444.068,315.985 440.361,316.700 439.949 C 317.415 439.537,318.630 438.840,319.400 438.400 C 320.170 437.960,321.430 437.240,322.200 436.800 C 322.970 436.360,324.185 435.663,324.900 435.251 C 330.128 432.240,358.042 416.147,359.000 415.592 C 368.631 410.010,375.755 406.000,376.042 406.000 C 376.250 406.000,376.400 418.739,376.400 436.304 L 376.400 466.608 375.500 467.174 C 374.589 467.747,360.746 475.757,357.800 477.416 C 356.441 478.182,353.040 480.149,347.800 483.202 C 340.917 487.211,336.225 489.910,334.400 490.910 C 333.190 491.573,332.020 492.250,331.800 492.415 C 331.580 492.580,330.725 493.094,329.900 493.557 C 329.075 494.021,327.815 494.737,327.100 495.149 C 326.385 495.562,318.690 499.994,310.000 505.000 C 292.221 515.241,292.091 515.316,290.300 516.352 C 289.585 516.765,285.490 519.127,281.200 521.600 C 276.910 524.073,272.860 526.413,272.200 526.799 C 271.540 527.186,264.520 531.237,256.600 535.801 C 248.680 540.366,241.615 544.438,240.900 544.850 C 240.185 545.263,238.925 545.979,238.100 546.443 C 237.275 546.906,236.420 547.420,236.200 547.585 C 235.980 547.750,234.810 548.426,233.600 549.087 C 232.390 549.748,226.810 552.947,221.200 556.196 C 215.590 559.445,210.010 562.645,208.800 563.309 C 207.590 563.972,206.420 564.650,206.200 564.815 C 205.980 564.980,205.170 565.469,204.400 565.903 C 203.630 566.337,202.370 567.067,201.600 567.526 L 200.200 568.360 196.200 566.036 C 194.000 564.758,187.610 561.053,182.000 557.804 C 169.204 550.391,170.069 550.894,165.800 548.400 C 163.820 547.244,161.615 545.960,160.900 545.549 C 160.185 545.137,159.015 544.462,158.300 544.049 C 157.585 543.636,154.210 541.686,150.800 539.716 C 147.390 537.746,140.640 533.829,135.800 531.011 C 130.960 528.193,126.415 525.553,125.700 525.144 C 124.985 524.735,123.815 524.065,123.100 523.656 C 122.385 523.247,120.810 522.321,119.600 521.600 C 118.390 520.879,116.815 519.953,116.100 519.544 C 113.962 518.321,104.908 513.078,101.000 510.802 C 100.340 510.417,95.210 507.446,89.600 504.200 C 77.886 497.421,78.170 497.586,73.400 494.800 C 69.035 492.251,68.667 492.036,62.500 488.450 C 59.805 486.882,55.395 484.318,52.700 482.750 C 50.005 481.183,47.170 479.544,46.400 479.108 C 45.630 478.673,42.885 477.075,40.300 475.558 C 37.715 474.041,33.395 471.518,30.700 469.950 C 21.426 464.556,21.859 465.127,25.503 463.096 C 26.986 462.269,28.920 461.167,29.800 460.647 C 30.680 460.127,37.880 455.966,45.800 451.401 C 53.720 446.836,60.785 442.763,61.500 442.350 C 62.215 441.938,63.430 441.240,64.200 440.800 C 66.101 439.713,67.377 438.977,73.200 435.600 C 75.950 434.005,78.785 432.363,79.500 431.950 C 80.215 431.538,81.385 430.862,82.100 430.450 C 82.815 430.037,89.880 425.971,97.800 421.413 C 105.720 416.855,112.380 412.988,112.600 412.821 C 112.820 412.653,113.990 411.973,115.200 411.310 C 116.410 410.647,119.650 408.798,122.400 407.200 C 125.150 405.602,128.390 403.753,129.600 403.090 C 130.810 402.427,131.980 401.748,132.200 401.580 C 132.420 401.412,137.820 398.266,144.200 394.588 C 150.580 390.909,156.385 387.562,157.100 387.150 C 157.815 386.737,159.030 386.040,159.800 385.600 C 161.386 384.694,161.704 384.510,169.400 380.059 C 172.480 378.277,175.225 376.815,175.500 376.810 C 175.896 376.802,176.000 383.125,176.000 407.118 " stroke="none" fill="#040404" fill-rule="evenodd"></path></g></svg>