<svg xmlns="http://www.w3.org/2000/svg" width="17.217" height="21.58" viewBox="0 0 17.217 21.58"><path d="M21.1,13,18.993,8.868C18.993,3.6,15.2.85,11.5.85h0A7.493,7.493,0,0,0,4,8.343a10.858,10.858,0,0,0,2.783,7.263v3.754a1.719,1.719,0,0,0,1.23,1.647l4.509,1.352a1.719,1.719,0,0,0,1.517-.266c.849-.633.719-1.438.719-2.84a16.949,16.949,0,0,0,2.157,0,2.157,2.157,0,0,0,2.157-2.157V14.11C19.712,14.11,21.718,14.2,21.1,13ZM16.066,8.781,9.753,14.06a.216.216,0,0,1-.352-.223l1.071-4.084H7.682a.216.216,0,0,1-.137-.381l6.321-5.278a.216.216,0,0,1,.352.223L13.183,8.4h2.783a.216.216,0,0,1,.137.381Z" transform="translate(-4 -0.85)" fill="#f7f7ef"/></svg>