<?xml version="1.0" encoding="UTF-8"?>
<!-- Creator: CorelDRAW 2021 (64-Bit) -->
<svg xmlns="http://www.w3.org/2000/svg" xml:space="preserve" version="1.1" style="shape-rendering:geometricPrecision; text-rendering:geometricPrecision; image-rendering:optimizeQuality; fill-rule:evenodd; clip-rule:evenodd"
viewBox="0 0 7610.46 1809.36"
 xmlns:xlink="http://www.w3.org/1999/xlink"
 xmlns:xodm="http://www.corel.com/coreldraw/odm/2003">
 <defs>
  <style type="text/css">
   <![CDATA[
    .fil1 {fill:url(#id2);fill-rule:nonzero}
    .fil0 {fill:url(#id3);fill-rule:nonzero;fill-opacity:0.411765}
   ]]>
  </style>
   <mask id="id0">
  <linearGradient id="id1" gradientUnits="userSpaceOnUse" x1="3805.23" y1="0" x2="3805.23" y2="2230.76">
   <stop offset="0" style="stop-opacity:0.156863; stop-color:white"/>
   <stop offset="1" style="stop-opacity:1; stop-color:white"/>
  </linearGradient>
    <rect style="fill:url(#id1)" x="-0.1" y="-0.1" width="7610.66" height="1809.56"/>
   </mask>
  <linearGradient id="id2" gradientUnits="userSpaceOnUse" x1="3805.23" y1="0" x2="3805.23" y2="2230.76">
   <stop offset="0" style="stop-opacity:1; stop-color:black"/>
   <stop offset="1" style="stop-opacity:1; stop-color:black"/>
  </linearGradient>
  <linearGradient id="id3" gradientUnits="userSpaceOnUse" x1="6530.51" y1="-247.11" x2="6185.05" y2="2751.45">
   <stop offset="0" style="stop-opacity:1; stop-color:#050208"/>
   <stop offset="1" style="stop-opacity:1; stop-color:#636363"/>
  </linearGradient>
 </defs>
 <g id="Layer_x0020_1">
  <metadata id="CorelCorpID_0Corel-Layer"/>
  <path class="fil0" d="M345.93 0l6918.61 0c191.02,0 345.93,154.91 345.93,345.93l0 1117.5c-0,191.01 -154.91,345.92 -345.93,345.92l-6918.6 0.01c-191.02,-0.01 -345.93,-154.92 -345.93,-345.94l-0 -1117.5c0,-191.02 154.91,-345.93 345.93,-345.93z" data-name="active_tab_bg"/>
  <path class="fil1" style="mask:url(#id0)" d="M345.93 0l6918.61 0c191.02,0 345.93,154.91 345.93,345.93l0 1117.5c-0,191.01 -154.91,345.92 -345.93,345.92l-6918.6 0.01c-191.02,-0.01 -345.93,-154.92 -345.93,-345.94l-0 -1117.5c0,-191.02 154.91,-345.93 345.93,-345.93l-0 0z"/>
 </g>
</svg>
