<svg xmlns="http://www.w3.org/2000/svg" width="20.983" height="21.573" viewBox="0 0 20.983 21.573"><path d="M12.527,13.8a15.208,15.208,0,0,0,1.028-1.294,6.105,6.105,0,0,0,5.537,1.539,1.44,1.44,0,1,0-.59-2.819c-1.992.417-2.948-.827-3.71-1.517A7.845,7.845,0,0,0,8.205,7.767a11.282,11.282,0,0,0-3.6,1.266,1.442,1.442,0,1,0,1.5,2.466,8.356,8.356,0,0,1,2.725-.913c-.058.209-.237.805-.489,1.625-1.366,4.012-1.143,4-5.494,4a1.438,1.438,0,1,0,0,2.876c1.438,0,5.436.4,7.91-2.991,1.6,1.6,1.438,1.9,1.438,5.034a1.438,1.438,0,0,0,2.876,0C15.065,17.345,15.13,16.417,12.527,13.8ZM14.31,7.472a3.236,3.236,0,1,0-3.236-3.236A3.236,3.236,0,0,0,14.31,7.472Zm5.566,10.067a2.517,2.517,0,1,0,2.517,2.517,2.517,2.517,0,0,0-2.517-2.517Z" transform="translate(-1.41 -1)" fill="#f7f7ef"/></svg>