<svg id="Layer_2" data-name="Layer 2" xmlns="http://www.w3.org/2000/svg" viewBox="0 0 32 32"><defs><style>.cls-1{fill:#231f20;}</style></defs><title>brainpower</title><path class="cls-1" d="M27.78,17.74,24.85,12C24.85,4.67,19.58.85,14.43.85h0A10.42,10.42,0,0,0,4,11.27a15.1,15.1,0,0,0,3.87,10.1v5.22a2.39,2.39,0,0,0,1.71,2.29l6.27,1.88a2.39,2.39,0,0,0,2.11-.37c1.18-.88,1-2,1-3.95a23.57,23.57,0,0,0,3,0,3,3,0,0,0,3-3V19.29C25.85,19.29,28.64,19.41,27.78,17.74Zm-7-5.86L12,19.22a.3.3,0,0,1-.49-.31L13,13.23H9.12a.3.3,0,0,1-.19-.53l8.79-7.34a.3.3,0,0,1,.49.31l-1.44,5.68h3.87a.3.3,0,0,1,.19.53Z"/></svg>