<svg id="Layer_2" data-name="Layer 2" xmlns="http://www.w3.org/2000/svg" viewBox="0 0 32 32"><defs><style>.cls-1{fill:#231f20;}</style></defs><title>share</title><path class="cls-1" d="M27,4H5A4,4,0,0,0,1,8V23a4,4,0,0,0,4,4H9V24H5a1,1,0,0,1-1-1V8A1,1,0,0,1,5,7H27a1,1,0,0,1,1,1V23a1,1,0,0,1-1,1H23v3h4a4,4,0,0,0,4-4V8A4,4,0,0,0,27,4ZM24.85,18.85a2.52,2.52,0,0,0-.36-1.3,23.33,23.33,0,0,0-7.19-7.19,2.53,2.53,0,0,0-2.6,0,23.32,23.32,0,0,0-7.19,7.19,2.53,2.53,0,1,0,4.34,2.6,17.27,17.27,0,0,1,1.21-1.66l.57,7.31a2.38,2.38,0,0,0,4.74,0l.57-7.34a13.81,13.81,0,0,1,1.21,1.69,2.53,2.53,0,0,0,4.7-1.3Z"/></svg>